<?xml version="1.0"?><svg width="1000" height="600" xmlns="http://www.w3.org/2000/svg">
 <title>Wide Thought Bubble</title>

 <metadata id="metadata1906">image/svg+xml</metadata>
 <g>
  <title>Layer 1</title>
  <g id="layer1">
   <path fill="#ffffff" stroke="#000000" stroke-width="6" id="path2393" d="m73.816078,576.868286c-6.811562,-5.262512 -6.677307,-11.888977 0.338409,-16.672913c7.250671,-4.945374 16.37693,-4.847229 22.967766,0.245361c6.811668,5.264343 6.677238,11.888977 -0.338417,16.672974c-7.250671,4.945251 -16.376953,4.847107 -22.967758,-0.245422zm49.716599,-21.476257c-18.194008,-7.166382 -17.898842,-28.011597 0.494316,-34.914978c13.86412,-5.204712 30.70015,-1.700439 37.467606,7.800964c12.881073,18.082397 -13.341537,36.811768 -37.961922,27.114014zm70.602638,-32.750061c-23.834381,-9.250671 -33.333984,-30.329041 -21.13414,-46.896912c12.740753,-17.302277 41.778549,-24.198669 64.600616,-15.342407c23.834366,9.248962 33.334213,30.329102 21.134384,46.896881c-12.740997,17.302338 -41.778793,24.198822 -64.600861,15.342438zm360.079895,-32.075012c-31.107605,-4.89975 -50.971832,-10.882813 -74.75766,-22.519318l-12.907135,-6.314453l-22.107544,7.920166c-12.16095,4.356262 -29.714172,9.0737 -39.011139,10.481323c-86.989044,13.17749 -172.172974,-25.138336 -194.387009,-87.435577c-3.023331,-8.47937 -5.48642,-12.293945 -7.663849,-11.869751c-1.764755,0.341919 -11.90184,1.030792 -22.526993,1.530426c-35.183701,1.653107 -63.853729,-6.566803 -88.608559,-25.408325c-14.742325,-11.21933 -21.145699,-19.17807 -27.0355,-33.60022c-7.924423,-19.402496 -3.059555,-46.681274 11.388786,-63.859161c9.146805,-10.875732 29.698463,-24.780731 44.69796,-30.244888l13.897934,-5.061005l3.017059,-11.394669c11.416229,-43.115616 65.230865,-75.380554 125.728043,-75.380554l14.025909,0l1.534332,-10.656799c6.012146,-41.7565 49.462708,-79.947006 107.820831,-94.76778c13.334534,-3.386833 20.598297,-3.98637 48.296082,-3.98637c27.695435,0 34.959167,0.599537 48.296112,3.98637c44.089508,11.197273 79.18631,34.727581 96.901337,64.964962c3.796082,6.479187 8.11853,11.377655 9.864502,11.176231c1.709656,-0.197205 9.627747,-2.076447 17.59668,-4.17585c19.726501,-5.197205 54.731506,-6.424667 76.628967,-2.687057c42.307373,7.220528 79.985535,28.733467 97.76825,55.822777c5.568481,8.482849 7.534119,10.051819 11.542725,9.208633c10.779663,-2.270157 44.367249,-2.857422 57.955261,-1.01326c23.300476,3.160706 47.721313,12.621796 66.440979,25.743164c53.910522,37.781189 55.231384,96.75116 3.047607,135.989075c-27.647217,20.790894 -62.372131,30.642822 -102.411987,29.059906l-20.851807,-0.825684l-2.897705,13.04425c-16.145447,72.659332 -101.716553,125.292114 -202.918579,124.811798c-12.617432,-0.059601 -29.883179,-1.202545 -38.363892,-2.538361z"/>
  </g>
 </g>
</svg>